<svg width="55" height="24" viewBox="0 0 55 24" fill="none" xmlns="http://www.w3.org/2000/svg">
<g style="mix-blend-mode:plus-darker">
<path d="M37.8008 8.64001L29.9725 21.12H29.0516L26.1708 15.5703L18 24L25.8282 14.4H26.7492L29.5121 20.16L37.8008 8.64001Z" fill="white"/>
<path d="M38.8958 20.64H36V12H39.0241C39.9343 12 40.7133 12.173 41.3608 12.5189C42.0084 12.862 42.5048 13.3556 42.85 13.9997C43.1951 14.6409 43.3677 15.4087 43.3677 16.3031C43.3677 17.2031 43.1936 17.978 42.8454 18.6277C42.4972 19.2745 41.9901 19.7723 41.3242 20.1211C40.6583 20.467 39.8488 20.64 38.8958 20.64ZM37.1363 19.7119H38.8225C39.5983 19.7119 40.2413 19.5741 40.7514 19.2984C41.2616 19.0228 41.6419 18.6305 41.8923 18.1214C42.1428 17.6123 42.2681 17.0062 42.2681 16.3031C42.2681 15.6056 42.1444 15.0052 41.8969 14.5017C41.6495 13.9955 41.2799 13.6073 40.7881 13.3373C40.2963 13.0645 39.6839 12.9281 38.9508 12.9281H37.1363V19.7119Z" fill="white"/>
<path d="M14 20.8582V12.48H18.8508V13.38H14.9733V16.2109H18.5996V17.1109H14.9733V19.9582H18.9136V20.8582H16.4568H14Z" fill="white"/>
<path d="M7 20.8582V12.48H9.7158C10.3437 12.48 10.8592 12.5918 11.2621 12.8155C11.665 13.0364 11.9633 13.3405 12.1569 13.7277C12.3505 14.115 12.4473 14.5555 12.4473 15.0491C12.4473 15.5427 12.3505 15.9805 12.1569 16.3623C11.9633 16.7441 11.6663 17.0441 11.266 17.2623C10.8657 17.4777 10.3542 17.5855 9.7315 17.5855H7.53374V16.6691H9.7001C10.1292 16.6691 10.4746 16.6036 10.7362 16.4727C11.0004 16.3418 11.1914 16.1564 11.3092 15.9164C11.4295 15.6736 11.4897 15.3846 11.4897 15.0491C11.4897 14.7136 11.4295 14.4205 11.3092 14.1696C11.1888 13.9186 10.9965 13.725 10.7323 13.5886C10.468 13.4496 10.1187 13.38 9.68441 13.38H7.97329V20.8582H7ZM10.7833 17.0946L12.7613 20.8582H11.631L9.68441 17.0946H10.7833Z" fill="white"/>
<path d="M0 13.38V12.48H6.02814V13.38H3.50072V20.8582H2.52742V13.38H0Z" fill="white"/>
<path d="M55 4.30364C55 5.18727 54.8469 5.95091 54.5408 6.59455C54.2347 7.23818 53.8148 7.73455 53.281 8.08364C52.7473 8.43273 52.1377 8.60728 51.4522 8.60728C50.7667 8.60728 50.1571 8.43273 49.6233 8.08364C49.0896 7.73455 48.6697 7.23818 48.3635 6.59455C48.0574 5.95091 47.9044 5.18727 47.9044 4.30364C47.9044 3.42 48.0574 2.65636 48.3635 2.01273C48.6697 1.36909 49.0896 0.872729 49.6233 0.523638C50.1571 0.174547 50.7667 0 51.4522 0C52.1377 0 52.7473 0.174547 53.281 0.523638C53.8148 0.872729 54.2347 1.36909 54.5408 2.01273C54.8469 2.65636 55 3.42 55 4.30364ZM54.0581 4.30364C54.0581 3.57818 53.9417 2.96591 53.7088 2.46682C53.4786 1.96773 53.1659 1.59 52.7708 1.33364C52.3784 1.07727 51.9388 0.949092 51.4522 0.949092C50.9655 0.949092 50.5247 1.07727 50.1296 1.33364C49.7371 1.59 49.4245 1.96773 49.1916 2.46682C48.9614 2.96591 48.8463 3.57818 48.8463 4.30364C48.8463 5.02909 48.9614 5.64136 49.1916 6.14045C49.4245 6.63955 49.7371 7.01727 50.1296 7.27364C50.5247 7.53 50.9655 7.65818 51.4522 7.65818C51.9388 7.65818 52.3784 7.53 52.7708 7.27364C53.1659 7.01727 53.4786 6.63955 53.7088 6.14045C53.9417 5.64136 54.0581 5.02909 54.0581 4.30364Z" fill="white"/>
<path d="M41.0226 1.01456V0.114563H47.0508V1.01456H44.5234V8.49274H43.5501V1.01456H41.0226Z" fill="white"/>
<path d="M39.8894 2.73273H38.9162C38.8586 2.44091 38.7579 2.18455 38.614 1.96364C38.4727 1.74273 38.3 1.55727 38.0959 1.40727C37.8945 1.25455 37.6708 1.14 37.4248 1.06364C37.1789 0.987274 36.9225 0.949092 36.6556 0.949092C36.169 0.949092 35.7281 1.07727 35.333 1.33364C34.9406 1.59 34.6279 1.96773 34.395 2.46682C34.1648 2.96591 34.0497 3.57818 34.0497 4.30364C34.0497 5.02909 34.1648 5.64136 34.395 6.14045C34.6279 6.63955 34.9406 7.01727 35.333 7.27364C35.7281 7.53 36.169 7.65818 36.6556 7.65818C36.9225 7.65818 37.1789 7.62 37.4248 7.54364C37.6708 7.46727 37.8945 7.35409 38.0959 7.20409C38.3 7.05136 38.4727 6.86455 38.614 6.64364C38.7579 6.42 38.8586 6.16364 38.9162 5.87455H39.8894C39.8162 6.30273 39.6827 6.68591 39.4891 7.02409C39.2955 7.36227 39.0548 7.65 38.767 7.88728C38.4792 8.12182 38.1561 8.30045 37.7976 8.42318C37.4418 8.54591 37.0611 8.60728 36.6556 8.60728C35.9701 8.60728 35.3605 8.43273 34.8267 8.08364C34.293 7.73455 33.8731 7.23818 33.567 6.59455C33.2608 5.95091 33.1078 5.18727 33.1078 4.30364C33.1078 3.42 33.2608 2.65636 33.567 2.01273C33.8731 1.36909 34.293 0.872729 34.8267 0.523638C35.3605 0.174547 35.9701 0 36.6556 0C37.0611 0 37.4418 0.061365 37.7976 0.184092C38.1561 0.30682 38.4792 0.48682 38.767 0.724092C39.0548 0.958638 39.2955 1.245 39.4891 1.58318C39.6827 1.91864 39.8162 2.30182 39.8894 2.73273Z" fill="white"/>
<path d="M26.8167 8.49274V0.114563H31.6675V1.01456H27.79V3.84547H31.4163V4.74547H27.79V7.59274H31.7303V8.49274H26.8167Z" fill="white"/>
<path d="M20.6002 8.49274V0.114563H21.5735V7.59274H25.3097V8.49274H20.6002Z" fill="white"/>
<path d="M14.1139 8.49274V0.114563H18.9333V1.01456H15.0872V3.84547H18.5722V4.74547H15.0872V8.49274H14.1139Z" fill="white"/>
<path d="M7.50885 8.49274V0.114563H12.3596V1.01456H8.48214V3.84547H12.1084V4.74547H8.48214V7.59274H12.4224V8.49274H7.50885Z" fill="white"/>
<path d="M0.439697 8.49274V0.114563H3.1555C3.78343 0.114563 4.29886 0.22638 4.70178 0.450016C5.1047 0.670925 5.40297 0.975016 5.59658 1.36229C5.79019 1.74956 5.887 2.19002 5.887 2.68365C5.887 3.17729 5.79019 3.61502 5.59658 3.99683C5.40297 4.37865 5.10601 4.67865 4.7057 4.89683C4.3054 5.11229 3.7939 5.22002 3.1712 5.22002H0.973439V4.30365H3.1398C3.56889 4.30365 3.91425 4.2382 4.17589 4.10729C4.44014 3.97638 4.63114 3.79093 4.74887 3.55093C4.86923 3.3082 4.9294 3.01911 4.9294 2.68365C4.9294 2.3482 4.86923 2.05502 4.74887 1.80411C4.62852 1.5532 4.43622 1.35956 4.17196 1.2232C3.90771 1.08411 3.55842 1.01456 3.1241 1.01456H1.41299V8.49274H0.439697ZM4.22298 4.72911L6.20096 8.49274H5.07069L3.1241 4.72911H4.22298Z" fill="white"/>
</g>
</svg>
