<svg id="visual" viewBox="0 0 900 600" width="900" height="600" xmlns="http://www.w3.org/2000/svg" xmlns:xlink="http://www.w3.org/1999/xlink" version="1.1"><path d="M0 55L82 55L82 115L164 115L164 133L245 133L245 79L327 79L327 85L409 85L409 121L491 121L491 73L573 73L573 61L655 61L655 79L736 79L736 109L818 109L818 97L900 97L900 97L900 0L900 0L818 0L818 0L736 0L736 0L655 0L655 0L573 0L573 0L491 0L491 0L409 0L409 0L327 0L327 0L245 0L245 0L164 0L164 0L82 0L82 0L0 0Z" fill="#170c65"></path><path d="M0 181L82 181L82 283L164 283L164 343L245 343L245 223L327 223L327 187L409 187L409 229L491 229L491 253L573 253L573 187L655 187L655 247L736 247L736 313L818 313L818 295L900 295L900 331L900 95L900 95L818 95L818 107L736 107L736 77L655 77L655 59L573 59L573 71L491 71L491 119L409 119L409 83L327 83L327 77L245 77L245 131L164 131L164 113L82 113L82 53L0 53Z" fill="#4f0468"></path><path d="M0 223L82 223L82 343L164 343L164 391L245 391L245 289L327 289L327 277L409 277L409 313L491 313L491 337L573 337L573 283L655 283L655 301L736 301L736 397L818 397L818 397L900 397L900 385L900 329L900 293L818 293L818 311L736 311L736 245L655 245L655 185L573 185L573 251L491 251L491 227L409 227L409 185L327 185L327 221L245 221L245 341L164 341L164 281L82 281L82 179L0 179Z" fill="#750067"></path><path d="M0 469L82 469L82 469L164 469L164 547L245 547L245 451L327 451L327 463L409 463L409 487L491 487L491 445L573 445L573 499L655 499L655 517L736 517L736 469L818 469L818 541L900 541L900 541L900 383L900 395L818 395L818 395L736 395L736 299L655 299L655 281L573 281L573 335L491 335L491 311L409 311L409 275L327 275L327 287L245 287L245 389L164 389L164 341L82 341L82 221L0 221Z" fill="#950c64"></path><path d="M0 601L82 601L82 601L164 601L164 601L245 601L245 601L327 601L327 601L409 601L409 601L491 601L491 601L573 601L573 601L655 601L655 601L736 601L736 601L818 601L818 601L900 601L900 601L900 539L900 539L818 539L818 467L736 467L736 515L655 515L655 497L573 497L573 443L491 443L491 485L409 485L409 461L327 461L327 449L245 449L245 545L164 545L164 467L82 467L82 467L0 467Z" fill="#b0235f"></path></svg>