<svg id="visual" viewBox="0 0 900 600" width="900" height="600" xmlns="http://www.w3.org/2000/svg" xmlns:xlink="http://www.w3.org/1999/xlink" version="1.1"><path d="M0 315L129 315L129 254L257 254L257 304L386 304L386 320L514 320L514 252L643 252L643 297L771 297L771 323L900 323L900 313L900 0L900 0L771 0L771 0L643 0L643 0L514 0L514 0L386 0L386 0L257 0L257 0L129 0L129 0L0 0Z" fill="#9900ff"></path><path d="M0 208L129 208L129 231L257 231L257 273L386 273L386 287L514 287L514 232L643 232L643 250L771 250L771 286L900 286L900 233L900 0L900 0L771 0L771 0L643 0L643 0L514 0L514 0L386 0L386 0L257 0L257 0L129 0L129 0L0 0Z" fill="#8800e2"></path><path d="M0 224L129 224L129 222L257 222L257 171L386 171L386 184L514 184L514 217L643 217L643 222L771 222L771 155L900 155L900 205L900 0L900 0L771 0L771 0L643 0L643 0L514 0L514 0L386 0L386 0L257 0L257 0L129 0L129 0L0 0Z" fill="#7700c6"></path><path d="M0 94L129 94L129 143L257 143L257 91L386 91L386 131L514 131L514 92L643 92L643 120L771 120L771 167L900 167L900 152L900 0L900 0L771 0L771 0L643 0L643 0L514 0L514 0L386 0L386 0L257 0L257 0L129 0L129 0L0 0Z" fill="#6600ab"></path><path d="M0 100L129 100L129 50L257 50L257 57L386 57L386 87L514 87L514 46L643 46L643 42L771 42L771 51L900 51L900 49L900 0L900 0L771 0L771 0L643 0L643 0L514 0L514 0L386 0L386 0L257 0L257 0L129 0L129 0L0 0Z" fill="#560090"></path></svg>