<svg width="63" height="32" viewBox="0 0 63 32" fill="none" xmlns="http://www.w3.org/2000/svg">
<g style="mix-blend-mode:plus-darker" filter="url(#filter0_d_1_86)">
<path d="M41.8008 8.64001L33.9725 21.12H33.0516L30.1708 15.5703L22 24L29.8282 14.4H30.7492L33.5121 20.16L41.8008 8.64001Z" fill="black"/>
<path d="M42.8958 21.12H40V12.48H43.0241C43.9343 12.48 44.7133 12.653 45.3608 12.9989C46.0084 13.342 46.5048 13.8356 46.85 14.4797C47.1951 15.1209 47.3677 15.8888 47.3677 16.7831C47.3677 17.6831 47.1936 18.458 46.8454 19.1077C46.4972 19.7545 45.9901 20.2524 45.3242 20.6011C44.6583 20.947 43.8488 21.12 42.8958 21.12ZM41.1363 20.1919H42.8225C43.5983 20.1919 44.2413 20.0541 44.7514 19.7784C45.2616 19.5028 45.6419 19.1105 45.8923 18.6014C46.1428 18.0924 46.2681 17.4863 46.2681 16.7831C46.2681 16.0856 46.1444 15.4852 45.8969 14.9817C45.6495 14.4755 45.2799 14.0874 44.7881 13.8174C44.2963 13.5445 43.6839 13.4081 42.9508 13.4081H41.1363V20.1919Z" fill="black"/>
<path d="M18 20.8582V12.48H22.8508V13.38H18.9733V16.2109H22.5996V17.1109H18.9733V19.9582H22.9136V20.8582H20.4568H18Z" fill="black"/>
<path d="M11 20.8582V12.48H13.7158C14.3437 12.48 14.8592 12.5918 15.2621 12.8155C15.665 13.0364 15.9633 13.3405 16.1569 13.7277C16.3505 14.115 16.4473 14.5555 16.4473 15.0491C16.4473 15.5427 16.3505 15.9805 16.1569 16.3623C15.9633 16.7441 15.6663 17.0441 15.266 17.2623C14.8657 17.4777 14.3542 17.5855 13.7315 17.5855H11.5337V16.6691H13.7001C14.1292 16.6691 14.4746 16.6036 14.7362 16.4727C15.0004 16.3418 15.1914 16.1564 15.3092 15.9164C15.4295 15.6736 15.4897 15.3846 15.4897 15.0491C15.4897 14.7136 15.4295 14.4205 15.3092 14.1696C15.1888 13.9186 14.9965 13.725 14.7323 13.5886C14.468 13.4496 14.1187 13.38 13.6844 13.38H11.9733V20.8582H11ZM14.7833 17.0946L16.7613 20.8582H15.631L13.6844 17.0946H14.7833Z" fill="black"/>
<path d="M4 13.38V12.48H10.0281V13.38H7.50072V20.8582H6.52742V13.38H4Z" fill="black"/>
<path d="M59 4.30364C59 5.18727 58.8469 5.95091 58.5408 6.59455C58.2347 7.23818 57.8148 7.73455 57.281 8.08364C56.7473 8.43273 56.1377 8.60728 55.4522 8.60728C54.7667 8.60728 54.1571 8.43273 53.6233 8.08364C53.0896 7.73455 52.6697 7.23818 52.3635 6.59455C52.0574 5.95091 51.9044 5.18727 51.9044 4.30364C51.9044 3.42 52.0574 2.65636 52.3635 2.01273C52.6697 1.36909 53.0896 0.872729 53.6233 0.523638C54.1571 0.174547 54.7667 0 55.4522 0C56.1377 0 56.7473 0.174547 57.281 0.523638C57.8148 0.872729 58.2347 1.36909 58.5408 2.01273C58.8469 2.65636 59 3.42 59 4.30364ZM58.0581 4.30364C58.0581 3.57818 57.9417 2.96591 57.7088 2.46682C57.4786 1.96773 57.1659 1.59 56.7708 1.33364C56.3784 1.07727 55.9388 0.949092 55.4522 0.949092C54.9655 0.949092 54.5247 1.07727 54.1296 1.33364C53.7371 1.59 53.4245 1.96773 53.1916 2.46682C52.9614 2.96591 52.8463 3.57818 52.8463 4.30364C52.8463 5.02909 52.9614 5.64136 53.1916 6.14045C53.4245 6.63955 53.7371 7.01727 54.1296 7.27364C54.5247 7.53 54.9655 7.65818 55.4522 7.65818C55.9388 7.65818 56.3784 7.53 56.7708 7.27364C57.1659 7.01727 57.4786 6.63955 57.7088 6.14045C57.9417 5.64136 58.0581 5.02909 58.0581 4.30364Z" fill="black"/>
<path d="M45.0226 1.01456V0.114563H51.0508V1.01456H48.5234V8.49274H47.5501V1.01456H45.0226Z" fill="black"/>
<path d="M43.8894 2.73273H42.9162C42.8586 2.44091 42.7579 2.18455 42.614 1.96364C42.4727 1.74273 42.3 1.55727 42.0959 1.40727C41.8945 1.25455 41.6708 1.14 41.4248 1.06364C41.1789 0.987274 40.9225 0.949092 40.6556 0.949092C40.169 0.949092 39.7281 1.07727 39.333 1.33364C38.9406 1.59 38.6279 1.96773 38.395 2.46682C38.1648 2.96591 38.0497 3.57818 38.0497 4.30364C38.0497 5.02909 38.1648 5.64136 38.395 6.14045C38.6279 6.63955 38.9406 7.01727 39.333 7.27364C39.7281 7.53 40.169 7.65818 40.6556 7.65818C40.9225 7.65818 41.1789 7.62 41.4248 7.54364C41.6708 7.46727 41.8945 7.35409 42.0959 7.20409C42.3 7.05136 42.4727 6.86455 42.614 6.64364C42.7579 6.42 42.8586 6.16364 42.9162 5.87455H43.8894C43.8162 6.30273 43.6827 6.68591 43.4891 7.02409C43.2955 7.36227 43.0548 7.65 42.767 7.88728C42.4792 8.12182 42.1561 8.30045 41.7976 8.42318C41.4418 8.54591 41.0611 8.60728 40.6556 8.60728C39.9701 8.60728 39.3605 8.43273 38.8267 8.08364C38.293 7.73455 37.8731 7.23818 37.567 6.59455C37.2608 5.95091 37.1078 5.18727 37.1078 4.30364C37.1078 3.42 37.2608 2.65636 37.567 2.01273C37.8731 1.36909 38.293 0.872729 38.8267 0.523638C39.3605 0.174547 39.9701 0 40.6556 0C41.0611 0 41.4418 0.061365 41.7976 0.184092C42.1561 0.30682 42.4792 0.48682 42.767 0.724092C43.0548 0.958638 43.2955 1.245 43.4891 1.58318C43.6827 1.91864 43.8162 2.30182 43.8894 2.73273Z" fill="black"/>
<path d="M30.8167 8.49274V0.114563H35.6675V1.01456H31.79V3.84547H35.4163V4.74547H31.79V7.59274H35.7303V8.49274H30.8167Z" fill="black"/>
<path d="M24.6002 8.49274V0.114563H25.5735V7.59274H29.3097V8.49274H24.6002Z" fill="black"/>
<path d="M18.1139 8.49274V0.114563H22.9333V1.01456H19.0872V3.84547H22.5722V4.74547H19.0872V8.49274H18.1139Z" fill="black"/>
<path d="M11.5089 8.49274V0.114563H16.3596V1.01456H12.4821V3.84547H16.1084V4.74547H12.4821V7.59274H16.4224V8.49274H11.5089Z" fill="black"/>
<path d="M4.4397 8.49274V0.114563H7.1555C7.78343 0.114563 8.29886 0.22638 8.70178 0.450016C9.1047 0.670925 9.40297 0.975016 9.59658 1.36229C9.79019 1.74956 9.887 2.19002 9.887 2.68365C9.887 3.17729 9.79019 3.61502 9.59658 3.99683C9.40297 4.37865 9.10601 4.67865 8.7057 4.89683C8.3054 5.11229 7.7939 5.22002 7.1712 5.22002H4.97344V4.30365H7.1398C7.56889 4.30365 7.91425 4.2382 8.17589 4.10729C8.44014 3.97638 8.63114 3.79093 8.74887 3.55093C8.86923 3.3082 8.9294 3.01911 8.9294 2.68365C8.9294 2.3482 8.86923 2.05502 8.74887 1.80411C8.62852 1.5532 8.43622 1.35956 8.17196 1.2232C7.90771 1.08411 7.55842 1.01456 7.1241 1.01456H5.41299V8.49274H4.4397ZM8.22298 4.72911L10.201 8.49274H9.07069L7.1241 4.72911H8.22298Z" fill="black"/>
</g>
<defs>
<filter id="filter0_d_1_86" x="0" y="0" width="63" height="32" filterUnits="userSpaceOnUse" color-interpolation-filters="sRGB">
<feFlood flood-opacity="0" result="BackgroundImageFix"/>
<feColorMatrix in="SourceAlpha" type="matrix" values="0 0 0 0 0 0 0 0 0 0 0 0 0 0 0 0 0 0 127 0" result="hardAlpha"/>
<feOffset dy="4"/>
<feGaussianBlur stdDeviation="2"/>
<feComposite in2="hardAlpha" operator="out"/>
<feColorMatrix type="matrix" values="0 0 0 0 0 0 0 0 0 0 0 0 0 0 0 0 0 0 0.25 0"/>
<feBlend mode="normal" in2="BackgroundImageFix" result="effect1_dropShadow_1_86"/>
<feBlend mode="normal" in="SourceGraphic" in2="effect1_dropShadow_1_86" result="shape"/>
</filter>
</defs>
</svg>
